<?xml version="1.0"?>
<svg xmlns="http://www.w3.org/2000/svg" xmlns:xlink="http://www.w3.org/1999/xlink" version="1.1" id="Capa_1" x="0px" y="0px" viewBox="0 0 512 512" style="enable-background:new 0 0 512 512;" xml:space="preserve" width="512px" height="512px" class=""><g><g>
	<g>
		<path d="M455.595,403.059C471.736,389.292,482,368.828,482,346c0-41.355-33.645-75-75-75c-36.219,0-66.522,25.808-73.491,60H271    v-90h76c8.284,0,15-6.716,15-15c0-40.336-23.084-75.426-56.849-93.006C322.504,118.352,332,97.8,332,76c0-41.418-34.472-76-76-76    c-41.416,0-76,34.47-76,76c0,21.755,9.46,42.322,26.849,56.994C173.084,150.574,150,185.664,150,226c0,8.284,6.716,15,15,15h76v90    h-62.509c-6.968-34.192-37.271-60-73.491-60c-41.355,0-75,33.645-75,75c0,22.828,10.264,43.292,26.405,57.059    C22.908,420.79,0,456.242,0,497c0,8.284,6.716,15,15,15h180c8.284,0,15-6.716,15-15c0-40.758-22.908-76.21-56.405-93.941    c12.509-10.67,21.492-25.357,24.896-42.059c6.806,0,148.213,0,155.018,0c3.404,16.702,12.386,31.389,24.896,42.059    C324.908,420.79,302,456.242,302,497c0,8.284,6.716,15,15,15h180c8.284,0,15-6.716,15-15    C512,456.242,489.092,420.79,455.595,403.059z M105,301c24.813,0,45,20.187,45,45s-20.187,45-45,45s-45-20.187-45-45    S80.187,301,105,301z M178.533,482H31.467c6.892-34.747,37.244-61,73.533-61S171.642,447.253,178.533,482z M256,30    c24.935,0,46,21.065,46,46c0,24.393-21.065,45-46,45s-46-20.607-46-45C210,51.065,231.065,30,256,30z M181.527,211    c7.062-34.191,37.771-60,74.473-60c36.702,0,67.411,25.809,74.473,60H181.527z M407,301c24.813,0,45,20.187,45,45    s-20.187,45-45,45s-45-20.187-45-45S382.187,301,407,301z M333.467,482c6.892-34.747,37.244-61,73.533-61s66.642,26.253,73.533,61    H333.467z" data-original="#000000" class="active-path" data-old_color="#ffffff" fill="#ffffff"/>
	</g>
</g></g> </svg>
