<?xml version="1.0"?>
<svg xmlns="http://www.w3.org/2000/svg" xmlns:xlink="http://www.w3.org/1999/xlink" version="1.1" id="Capa_1" x="0px" y="0px" viewBox="0 0 512 512" style="enable-background:new 0 0 512 512;" xml:space="preserve" width="512px" height="512px" class=""><g><g>
	<g>
		<path d="M377,270c74.441,0,135-60.579,135-135C512,60.561,451.439,0,377,0S242,60.561,242,135c0,18.387,3.7,35.924,10.387,51.914    L188.6,221.548C169.405,196.32,139.075,180,105,180C47.103,180,0,227.103,0,285c0,57.843,47.055,105,105,105    c33.06,0,63.65-15.476,83.425-41.319l115.102,65.603c-2.284,7.17-3.526,14.8-3.526,22.716c0,41.355,33.645,75,75,75    c41.355,0,75-33.645,75-75c0-41.355-33.645-75-75-75c-22.689,0-43.041,10.141-56.806,26.113l-115.122-65.615    C207.543,310.847,210,298.206,210,285c0-13.104-2.42-25.651-6.825-37.228l63.791-34.638C292.033,248.332,332.623,270,377,270z     M377,240c-24.499,0-47.064-8.436-64.946-22.552C325.326,194.409,349.82,180,377,180s51.674,14.409,64.946,37.448    C424.064,231.564,401.499,240,377,240z M347,120c0-16.542,13.458-30,30-30s30,13.458,30,30s-13.458,30-30,30S347,136.542,347,120z     M377,30c57.897,0,105,47.103,105,105c0,22.257-6.967,42.915-18.826,59.919c-10.579-15.237-24.902-27.239-41.438-34.992    C431.22,149.312,437,135.321,437,120c0-33.084-26.916-60-60-60s-60,26.916-60,60c0,15.321,5.78,29.312,15.264,39.927    c-16.535,7.752-30.859,19.754-41.438,34.992C278.967,177.915,272,157.257,272,135C272,77.103,319.103,30,377,30z M105,360    c-13.614,0-26.381-3.665-37.399-10.032C75.827,337.71,89.775,330,105,330s29.173,7.71,37.399,19.968    C131.381,356.335,118.614,360,105,360z M90,285c0-8.271,6.729-15,15-15s15,6.729,15,15s-6.729,15-15,15S90,293.271,90,285z     M164.977,329.977c-6.129-8.143-13.839-14.918-22.594-19.958C147.19,302.859,150,294.252,150,285c0-24.813-20.187-45-45-45    s-45,20.187-45,45c0,9.252,2.81,17.859,7.616,25.019c-8.755,5.04-16.465,11.815-22.594,19.958C35.595,317.437,30,301.861,30,285    c0-41.355,33.645-75,75-75s75,33.645,75,75C180,301.861,174.405,317.437,164.977,329.977z M375,392c24.813,0,45,20.187,45,45    s-20.187,45-45,45s-45-20.187-45-45S350.187,392,375,392z" data-original="#000000" class="active-path" data-old_color="#FFFfFf" fill="#FFFfFf"/>
	</g>
</g></g> </svg>
